<svg id="visual" viewBox="0 0 960 540" width="960" height="540" xmlns="http://www.w3.org/2000/svg" xmlns:xlink="http://www.w3.org/1999/xlink" version="1.1"><rect x="0" y="0" width="960" height="540" fill="#ffffff"></rect><path d="M353 0L373.3 12.8C393.7 25.7 434.3 51.3 445.7 77C457 102.7 439 128.3 421.3 154C403.7 179.7 386.3 205.3 393.3 231.2C400.3 257 431.7 283 451.5 308.8C471.3 334.7 479.7 360.3 461.7 386C443.7 411.7 399.3 437.3 385 463C370.7 488.7 386.3 514.3 394.2 527.2L402 540L0 540L0 527.2C0 514.3 0 488.7 0 463C0 437.3 0 411.7 0 386C0 360.3 0 334.7 0 308.8C0 283 0 257 0 231.2C0 205.3 0 179.7 0 154C0 128.3 0 102.7 0 77C0 51.3 0 25.7 0 12.8L0 0Z" fill="#0066FF" stroke-linecap="round" stroke-linejoin="miter"></path></svg>